# xmcd
#
# Track frame offsets:
#	182
#	15397
#	30400
#
# Disc length: 576 seconds
#
# Revision: 0
# Processed by: cddbd v1.5.2PL0 Copyright (c) Steve Scherf et al.
# Submitted via: audiograbber 1.83.01
#
DISCID=12023e03
DTITLE=Jill Morris - Love Me Out Of My Mind [CD-Single)
DYEAR=1998
DGENRE=Country
TTITLE0=Love Me Out Of My Mind
TTITLE1=Lovey Dovey
TTITLE2=I Get So Rattled
EXTD=
EXTT0=
EXTT1=
EXTT2=
PLAYORDER=
